<svg xmlns="http://www.w3.org/2000/svg" width="184" height="30" viewBox="0 0 184 30">
  <g id="Group_214" data-name="Group 214" transform="translate(-10 -200)">
    <rect id="Rectangle_62" data-name="Rectangle 62" width="184" height="30" rx="4" transform="translate(10 200)" fill="#0095ff"/>
    <g id="Group_224" data-name="Group 224" transform="translate(1)">
      <text id="Twitter" transform="translate(93 220)" fill="#fff" font-size="12" font-family="'Josefin Sans', sans-serif"><tspan x="0" y="0">Twitter</tspan></text>
      <g id="Group_220" data-name="Group 220" transform="translate(43 -5)">
        <path id="Path_19111" data-name="Path 19111" d="M27.949,227c5.636,0,8.9-4.22,8.9-8.224a5.787,5.787,0,0,0,1.144-2.155.339.339,0,0,0-.48-.384,1.494,1.494,0,0,1-1.681-.282,3.091,3.091,0,0,0-4.335-.131,3.013,3.013,0,0,0-.887,2.895,6.91,6.91,0,0,1-5.868-2.644.337.337,0,0,0-.582.18,7.162,7.162,0,0,0,3.615,7.538,5.275,5.275,0,0,1-3.48,1.731.334.334,0,0,0-.106.631,8.759,8.759,0,0,0,3.762.844" transform="translate(6 -1)" fill="#fff"/>
        <rect id="Rectangle_223" data-name="Rectangle 223" width="16" height="16" transform="translate(29 212)" fill="none"/>
      </g>
    </g>
  </g>
</svg>
