<svg xmlns="http://www.w3.org/2000/svg" width="74.2" height="14" viewBox="0 0 74.2 14">
  <g id="StreamzUp_Logo" data-name="StreamzUp Logo" transform="translate(-140 -40)">
    <path id="STREAMZUP" d="M-68.22-16.811a4.531,4.531,0,0,0-.743-.27,3.029,3.029,0,0,0-.8-.112,1.588,1.588,0,0,0-1.041.321,1.017,1.017,0,0,0-.39.823.9.9,0,0,0,.209.6,1.668,1.668,0,0,0,.534.409q.325.163.836.358a5.888,5.888,0,0,1,.925.418,1.9,1.9,0,0,1,.618.581,1.639,1.639,0,0,1,.251.944,1.816,1.816,0,0,1-.26.971,1.743,1.743,0,0,1-.729.655,2.387,2.387,0,0,1-1.073.232,3.756,3.756,0,0,1-2.081-.679l.214-.372a3.494,3.494,0,0,0,.846.456,2.682,2.682,0,0,0,.976.2,1.981,1.981,0,0,0,.794-.163,1.448,1.448,0,0,0,.613-.493,1.327,1.327,0,0,0,.237-.795,1.207,1.207,0,0,0-.218-.734,1.667,1.667,0,0,0-.548-.479,6.3,6.3,0,0,0-.832-.367,7.748,7.748,0,0,1-.92-.4,1.857,1.857,0,0,1-.609-.507,1.247,1.247,0,0,1-.246-.79,1.456,1.456,0,0,1,.237-.823,1.58,1.58,0,0,1,.66-.558,2.276,2.276,0,0,1,.943-.209,3.772,3.772,0,0,1,.925.121,4.2,4.2,0,0,1,.85.307Zm5.8-.744v.437h-1.942v6.163h-.455v-6.163h-1.923v-.437Zm5.268,6.6-1.728-2.807a2.7,2.7,0,0,1-.492.037H-60.4v2.77h-.455v-6.6h1.505a2.516,2.516,0,0,1,1,.2,1.833,1.833,0,0,1,.78.623,1.733,1.733,0,0,1,.3,1.041,2.163,2.163,0,0,1-.279,1.092,1.616,1.616,0,0,1-.864.711l1.784,2.928ZM-59.4-14.162a1.622,1.622,0,0,0,1.287-.446,1.568,1.568,0,0,0,.386-1.06,1.441,1.441,0,0,0-.19-.725,1.377,1.377,0,0,0-.544-.53,1.662,1.662,0,0,0-.818-.2H-60.4v2.956Zm8.5-3.393v.437h-3.614V-14.5h3.252v.437h-3.252v2.668h3.744v.437h-4.2v-6.6Zm5.528,4.416H-48.28l-.873,2.185h-.455l2.787-6.888h.037L-44-10.954h-.511Zm-.167-.428-1.273-3.244-1.3,3.244Zm9.384-4.137v6.749H-36.6v-5.42l-2.713,3.821h-.019l-2.695-3.774v5.373h-.446V-17.7h.009l3.141,4.471,3.159-4.471Zm7.043,6.312v.437h-5.473q3.289-4.629,4.441-6.163h-3.549q-.613,0-.613-.474v-.288h.437v.112a.192.192,0,0,0,.065.167.4.4,0,0,0,.223.046h4.246l-4.46,6.163Zm2.629-2.092a1.119,1.119,0,0,0,.2.623,1.5,1.5,0,0,0,.52.483,1.381,1.381,0,0,0,.7.186,1.486,1.486,0,0,0,.734-.186,1.439,1.439,0,0,0,.525-.483,1.138,1.138,0,0,0,.19-.623V-17.8h1.329v4.341a2.435,2.435,0,0,1-.372,1.325,2.559,2.559,0,0,1-1.008.92,2.992,2.992,0,0,1-1.4.33,2.964,2.964,0,0,1-1.394-.33,2.533,2.533,0,0,1-1-.92,2.458,2.458,0,0,1-.367-1.325V-17.8h1.347Zm7.889-4.313a2.8,2.8,0,0,1,1.942.618,2.154,2.154,0,0,1,.688,1.687,2.8,2.8,0,0,1-.237,1.148,2,2,0,0,1-.771.878,2.509,2.509,0,0,1-1.38.344h-.966v2.166h-1.347V-17.8Zm.232,3.365a1.006,1.006,0,0,0,.613-.172,1.009,1.009,0,0,0,.334-.4,1.107,1.107,0,0,0,.1-.446,1.3,1.3,0,0,0-.214-.7.9.9,0,0,0-.827-.339h-.966v2.064Z" transform="translate(230.164 61.52)" fill="#fff"/>
    <rect id="Rectangle_178" data-name="Rectangle 178" width="14" height="14" rx="2" transform="translate(140 40)" fill="#9147ff"/>
    <circle id="Ellipse_66" data-name="Ellipse 66" cx="0.504" cy="0.504" r="0.504" transform="translate(147.309 45.13)" fill="#009eb5"/>
    <circle id="Ellipse_67" data-name="Ellipse 67" cx="0.504" cy="0.504" r="0.504" transform="translate(148.23 44.253)" fill="#f9820a"/>
    <circle id="Ellipse_69" data-name="Ellipse 69" cx="0.504" cy="0.504" r="0.504" transform="translate(148.23 45.963)" fill="#4fa13a"/>
    <circle id="Ellipse_68" data-name="Ellipse 68" cx="0.504" cy="0.504" r="0.504" transform="translate(149.019 45.13)" fill="#e82c29"/>
    <path id="Path_19019" data-name="Path 19019" d="M8.069-417.639a22.661,22.661,0,0,0-2.184,1.233c-1.059.612-1.963,1.145-2.011,1.187a.867.867,0,0,0-.25.466.8.8,0,0,0,.222.695c.063.061.713.449,2.039,1.215,1.069.621,2,1.152,2.054,1.185a.568.568,0,0,0,.337.057.6.6,0,0,0,.348-.059.923.923,0,0,0,.387-.388l.059-.12.007-1.8,0-1.8.057-.013a.66.66,0,0,1,.548.2c.159.181.146-.048.152,2.615.007,2.689.017,2.5-.156,2.685a.592.592,0,0,1-.741.126c-.085-.041-.943-.536-1.913-1.1-4.217-2.452-5.788-3.356-5.869-3.378a.957.957,0,0,0-.5.022.774.774,0,0,0-.433.4l-.087.172-.007,2.321c0,1.614,0,2.363.017,2.461a1,1,0,0,0,.076.24.818.818,0,0,0,.945.4c.065-.022,1.015-.557,2.108-1.189,1.482-.858,2.015-1.176,2.093-1.252a.764.764,0,0,0,.224-.449c.011-.089.024-.122.043-.113s.735.42,1.6.921,1.626.928,1.691.95a1.092,1.092,0,0,0,.619-.007,1.009,1.009,0,0,0,.619-.618,15.239,15.239,0,0,0,.039-2.6l-.007-2.461-.08-.163a.974.974,0,0,0-.887-.564h-.15l-.007-.453c-.007-.436-.009-.455-.065-.575a.787.787,0,0,0-.689-.466A.827.827,0,0,0,8.069-417.639Zm-1,1.807a.447.447,0,0,1,.113.684.426.426,0,0,1-.535.1.446.446,0,0,1,.009-.8A.516.516,0,0,1,7.07-415.832Zm-.9.841a.5.5,0,0,1,.263.405.481.481,0,0,1-.115.287.448.448,0,0,1-.685,0A.45.45,0,0,1,5.787-415,.5.5,0,0,1,6.165-414.991Zm1.789.035a.429.429,0,0,1,.187.4.43.43,0,0,1-.235.372.465.465,0,0,1-.461-.028.429.429,0,0,1-.187-.4.43.43,0,0,1,.235-.372A.465.465,0,0,1,7.954-414.956Zm-.928.836a.444.444,0,0,1-.17.852.422.422,0,0,1-.446-.47.4.4,0,0,1,.237-.366A.409.409,0,0,1,7.026-414.12Zm-4.358,1.64v.42l-.211.211-.213.213-.211-.211-.213-.213v-.838h.848Zm-.7.732.2.211-.2.213-.2.211-.422,0-.422-.007-.007-.392c0-.213,0-.4,0-.418s.111-.028.433-.028H1.77Zm1.6.211v.414l-.422.007-.422,0-.2-.211-.2-.213.2-.213.2-.211.426,0,.426.007Zm-.9.941v.42H1.82v-.838l.211-.211.213-.213.211.211.213.213Z" transform="translate(141.832 460.18)" fill="#fff"/>
  </g>
</svg>
